<svg width="35" height="27" viewBox="0 0 35 27" fill="none" xmlns="http://www.w3.org/2000/svg">
<path d="M11.3613 15.4484C8.3844 15.4484 5.9704 17.8664 5.9704 20.8521C5.9704 21.0834 5.98906 21.3091 6.01806 21.5321C6.35165 24.1958 8.61437 26.2572 11.3613 26.2572C14.1842 26.2572 16.4959 24.0816 16.7301 21.3126C16.7425 21.1596 16.7536 21.0079 16.7536 20.8507C16.7542 17.8671 14.3403 15.4484 11.3613 15.4484ZM8.66137 18.8157L9.76162 19.9187C9.676 20.0662 9.60899 20.2241 9.56616 20.3944H8.01555C8.09638 19.8045 8.32223 19.2678 8.66137 18.8157ZM8.01071 21.3292H9.57171C9.61589 21.4947 9.68083 21.654 9.76645 21.798L8.6641 22.9024C8.32429 22.453 8.09289 21.915 8.01071 21.3292ZM10.8958 24.2104C10.3121 24.1294 9.78096 23.9002 9.33203 23.5602L10.4282 22.4613C10.5718 22.5458 10.7307 22.6074 10.8958 22.6503V24.2104ZM10.8958 19.0546C10.7259 19.0975 10.567 19.166 10.4192 19.254L9.32097 18.1523C9.772 17.8089 10.308 17.5811 10.8958 17.4994V19.0546ZM11.8296 17.4994C12.418 17.5811 12.9533 17.8089 13.4044 18.153L12.3061 19.254C12.1583 19.166 11.9995 19.0975 11.8296 19.0546V17.4994ZM11.8296 24.2097V22.6503C11.9953 22.6067 12.1528 22.5451 12.2972 22.4599L13.394 23.5602C12.9443 23.8981 12.4125 24.128 11.8296 24.2097ZM14.0633 22.9066L12.9575 21.7966C13.0431 21.6519 13.1143 21.4961 13.1585 21.3285H14.7077C14.6248 21.915 14.4031 22.4565 14.0633 22.9066ZM13.1585 20.393C13.115 20.2241 13.0486 20.0648 12.963 19.9174L14.0633 18.8143C14.4038 19.2665 14.6283 19.8038 14.7091 20.3917L13.1585 20.393Z" fill="#3967FA"/>
<path fill-rule="evenodd" clip-rule="evenodd" d="M34.9193 0.45752C33.6306 0.671392 32.3607 0.940072 31.127 1.27241C24.2179 3.13297 17.1935 6.87828 17.1935 6.87828C17.1935 6.87828 4.99579 8.43624 2.07275 12.2557C1.05468 13.5851 0.627816 15.3314 0.473129 16.9046C0.256945 19.1031 1.69911 21.1104 3.84787 21.5958L4.97579 21.8506C4.97188 21.8258 4.96721 21.8012 4.9625 21.7765C4.95552 21.7399 4.94855 21.7031 4.94401 21.6651C4.90668 21.377 4.88806 21.1083 4.88806 20.8501C4.88806 17.2709 7.79311 14.3593 11.3633 14.3593C14.9342 14.3593 17.8393 17.2709 17.8393 20.8501C17.8393 21.0377 17.8268 21.2191 17.8117 21.4026C17.793 21.6235 17.7619 21.8409 17.7212 22.0542L34.9193 22.0892V8.44348L24.0673 9.30177C24.0673 9.30177 24.1764 8.03186 23.619 7.31867L24.1191 5.31548C24.1191 5.31548 28.0243 3.26743 34.9193 2.27331V0.45752Z" fill="#3967FA"/>
</svg>
