<svg width="28" height="34" viewBox="0 0 28 34" fill="none" xmlns="http://www.w3.org/2000/svg">
<path d="M13.9998 17C12.1665 17 10.6665 15.5 10.6665 13.6667C10.6665 11.8334 12.1665 10.3334 13.9998 10.3334C15.8332 10.3334 17.3332 11.8334 17.3332 13.6667C17.3332 15.5 15.8332 17 13.9998 17ZM23.9998 14C23.9998 7.95002 19.5832 3.66668 13.9998 3.66668C8.4165 3.66668 3.99984 7.95002 3.99984 14C3.99984 17.9 7.24984 23.0667 13.9998 29.2334C20.7498 23.0667 23.9998 17.9 23.9998 14ZM13.9998 0.333351C20.9998 0.333351 27.3332 5.70002 27.3332 14C27.3332 19.5334 22.8832 26.0834 13.9998 33.6667C5.1165 26.0834 0.666504 19.5334 0.666504 14C0.666504 5.70002 6.99984 0.333351 13.9998 0.333351Z" fill="white"/>
</svg>
